<svg width="40" height="41" viewBox="0 0 40 41" fill="none" xmlns="http://www.w3.org/2000/svg">
<path d="M8.87583 7.99976L11.9617 13.3985C14.4457 12.1125 17.2028 11.4432 20 11.4473C22.8962 11.4473 25.6292 12.1516 28.0383 13.3985L31.1242 7.99976L33.6558 9.44642L30.5087 14.9531C32.6812 16.5821 34.4441 18.6951 35.6577 21.1242C36.8713 23.5533 37.502 26.2318 37.5 28.9473V31.8639H2.5V28.9473C2.5 23.2248 5.2475 18.1454 9.48979 14.9531L6.34417 9.44642L8.87583 7.99976ZM20 14.3639C17.2381 14.3596 14.5324 15.1438 12.2008 16.6243C10.1219 17.9389 8.40952 19.7582 7.22328 21.9129C6.03704 24.0677 5.41553 26.4876 5.41667 28.9473H34.5833C34.5847 26.4873 33.9633 24.0671 32.7771 21.9121C31.5908 19.7571 29.8783 17.9375 27.7992 16.6229C25.4674 15.143 22.7617 14.3593 20 14.3639ZM11.25 21.6556H14.1725V24.5781H11.25V21.6556ZM25.8333 21.6556H28.7558V24.5781H25.8333V21.6556Z" fill="#B1B3C8"/>
</svg>
