<svg width="40" height="41" viewBox="0 0 40 41" fill="none" xmlns="http://www.w3.org/2000/svg">
<path d="M29.1628 35.4461C27.3859 37.1611 25.4458 36.8903 23.5783 36.0779C21.602 35.2475 19.7888 35.2114 17.7037 36.0779C15.0928 37.1972 13.7148 36.8723 12.1555 35.4461C3.30742 26.3653 4.61288 12.5365 14.6577 12.031C17.1054 12.1573 18.8097 13.3669 20.2421 13.4752C22.3816 13.0419 24.4305 11.7963 26.715 11.9587C29.4529 12.1754 31.5198 13.2586 32.8797 15.2083C27.2227 18.5843 28.5644 26.0042 33.75 28.0803C32.7165 30.7883 31.3748 33.4783 29.1446 35.4641L29.1628 35.4461ZM20.0608 11.9226C19.7888 7.89676 23.0706 4.57496 26.8419 4.25C27.3678 8.90775 22.5992 12.374 20.0608 11.9226Z" fill="#3B3C51"/>
</svg>
