<svg width="40" height="41" viewBox="0 0 40 41" fill="none" xmlns="http://www.w3.org/2000/svg">
<path fill-rule="evenodd" clip-rule="evenodd" d="M27.3418 5.27528C27.3351 5.12083 27.2951 4.96965 27.2244 4.83213C27.1538 4.6946 27.0543 4.57399 26.9326 4.47856C26.811 4.38312 26.6702 4.31514 26.5198 4.27926C26.3694 4.24338 26.213 4.24046 26.0614 4.2707C25.3469 4.4136 23.0148 4.99377 21.1743 6.83431C20.234 7.77459 19.7138 8.96065 19.4309 10.041C19.2953 10.567 19.2026 11.1032 19.1537 11.6443C19.0381 11.5943 18.9224 11.5448 18.8064 11.4957C17.8161 11.0727 16.5343 10.5811 15.0768 10.5811C13.5163 10.5811 11.3014 11.2156 9.47225 13.0104C7.61742 14.831 6.24988 17.7518 6.24988 22.156C6.24988 24.631 7.48738 28.2292 9.15502 31.1515C9.99812 32.6276 10.9913 34.0023 12.063 35.0155C13.1048 35.9986 14.3737 36.7846 15.757 36.7488C16.7858 36.7445 17.829 36.3401 18.6392 36.0258L18.7107 35.9972C19.6452 35.6356 20.3112 35.3913 20.8699 35.3913C21.4043 35.3913 22.076 35.6356 23.0248 36L23.0948 36.0258C23.9179 36.3416 24.9797 36.7488 25.9985 36.7488C26.7688 36.7488 27.659 36.3373 28.4393 35.8528C29.377 35.2563 30.2388 34.548 31.0057 33.7437C32.6305 32.0546 34.1738 29.641 34.1138 27.0574C34.1092 26.859 34.0495 26.6657 33.9416 26.4992C33.8336 26.3327 33.6815 26.1994 33.5022 26.1143C32.7469 25.73 32.0726 25.2041 31.5159 24.5652C30.84 23.7893 30.3413 22.8333 30.3098 21.7244C30.2755 20.3251 30.6123 18.9417 31.2858 17.7147C31.8888 16.6143 32.5719 15.9856 32.8891 15.8184C33.0247 15.7473 33.1435 15.6479 33.2375 15.527C33.3314 15.4062 33.3984 15.2665 33.4339 15.1176C33.4694 14.9687 33.4725 14.8138 33.4431 14.6636C33.4137 14.5133 33.3525 14.3711 33.2635 14.2465C32.7748 13.5606 31.846 12.6575 30.7514 11.9301C29.6696 11.2099 28.2592 10.5511 26.8159 10.5797C26.563 10.5854 26.3158 10.604 26.0729 10.6326C26.6016 9.84663 26.9102 8.87206 27.0903 8.01752C27.2817 7.1165 27.3666 6.19611 27.3432 5.27528M22.6919 8.34905C23.4649 7.57596 24.3738 7.08725 25.1269 6.78573C25.0931 7.0508 25.0487 7.31442 24.994 7.57596C24.8068 8.46479 24.5124 9.20787 24.1509 9.63085C23.4649 10.4297 22.5447 11.3013 21.31 11.6457C21.35 11.3071 21.4129 10.9455 21.5072 10.5826C21.7287 9.73231 22.1074 8.93493 22.6919 8.34905ZM26.8602 12.7218C27.6676 12.7075 28.635 13.0947 29.5667 13.7149C30.0583 14.0407 30.4927 14.4008 30.8385 14.7324C30.3284 15.2439 29.8268 15.9184 29.4081 16.6844C28.5514 18.2454 28.1239 20.0057 28.1692 21.7859C28.2178 23.5292 29.0037 24.9439 29.9011 25.9728C30.5585 26.7259 31.3015 27.3075 31.9446 27.7019C31.7631 29.2666 30.7671 30.9028 29.4624 32.2575C28.8186 32.9336 28.0956 33.5296 27.3089 34.0323C26.583 34.4839 26.1314 34.6053 26 34.6053C25.4284 34.6053 24.731 34.3567 23.7936 33.998L23.6793 33.9551C22.8733 33.6451 21.8416 33.2492 20.8713 33.2492C19.871 33.2492 18.845 33.6479 18.0419 33.9594L17.939 33.9994C17.013 34.3567 16.3286 34.6053 15.7427 34.6053H15.7098C15.1725 34.6225 14.4323 34.3024 13.5377 33.4579C12.6689 32.6362 11.7987 31.453 11.0184 30.0883C9.44082 27.3246 8.39479 24.1051 8.39479 22.1574C8.39479 18.2177 9.60229 15.887 10.9741 14.5409C12.3717 13.169 14.0336 12.7232 15.0796 12.7232C16.0728 12.7232 17.013 13.059 17.9662 13.4663L18.352 13.6335C18.6921 13.7806 19.0451 13.9335 19.3652 14.055C19.811 14.2222 20.3355 14.3822 20.8713 14.3822C21.4072 14.3822 21.9374 14.2322 22.4003 14.0679C22.7447 13.9464 23.122 13.7906 23.4864 13.6406L23.8465 13.492C24.8368 13.089 25.8213 12.7446 26.8602 12.7232" fill="#B1B3C8"/>
</svg>
