<svg width="40" height="41" viewBox="0 0 40 41" fill="none" xmlns="http://www.w3.org/2000/svg">
<path d="M6.25 6.75H33.75V34.25H6.25V6.75Z" fill="#F0DB4F"/>
<path d="M31.178 27.4806C30.9832 26.2609 30.1921 25.2364 27.8486 24.2811C27.0346 23.9049 26.127 23.6356 25.8566 23.0154C25.7606 22.6545 25.7478 22.4512 25.8086 22.2327C25.983 21.5236 26.8249 21.3026 27.4922 21.5059C27.9219 21.6507 28.3288 21.9837 28.5741 22.5148C29.7217 21.7677 29.7194 21.7726 30.5207 21.2592C30.2273 20.802 30.0708 20.5909 29.8787 20.3953C29.1885 19.6203 28.248 19.2211 26.7439 19.2516L25.9605 19.3535C25.2097 19.5442 24.4942 19.9404 24.0746 20.4716C22.8157 21.9076 23.1747 24.4209 24.7066 25.4553C26.2158 26.594 28.4328 26.8531 28.716 27.918C28.9916 29.2216 27.763 29.6436 26.5419 29.4937C25.642 29.3056 25.1415 28.8457 24.6004 28.0096C23.6045 28.589 23.6045 28.589 22.5805 29.181C22.8233 29.7148 23.0785 29.9563 23.4855 30.4187C25.4119 32.3831 30.2326 32.2866 31.0973 29.3132C31.1323 29.2112 31.3652 28.5303 31.178 27.4806ZM21.2177 19.409H18.7302L18.7201 25.8743C18.7201 27.2493 18.7908 28.5098 18.5684 28.8961C18.2045 29.656 17.2614 29.5618 16.8317 29.4145C16.3943 29.1983 16.1718 28.891 15.9141 28.4566C15.8434 28.3319 15.7903 28.2353 15.7724 28.2279L13.75 29.473C14.0863 30.1669 14.5817 30.7692 15.2163 31.1604C16.1642 31.7324 17.4382 31.9077 18.7706 31.6002C19.6378 31.3462 20.386 30.8202 20.7778 30.0195C21.3441 28.9698 21.2226 27.6993 21.2175 26.294C21.2303 24.0013 21.2177 21.709 21.2177 19.409Z" fill="#323330"/>
</svg>