<svg width="40" height="41" viewBox="0 0 40 41" fill="none" xmlns="http://www.w3.org/2000/svg">
<path d="M6.25 6.75V34.25H33.75V6.75H6.25ZM8.75 9.25H31.25V31.75H8.75V9.25ZM25.305 19.25C23.5238 19.25 22.3725 20.39 22.3725 21.9C22.3725 23.5375 23.335 24.3212 24.7825 24.9375L25.2825 25.1537C26.1987 25.5575 26.7438 25.7925 26.7438 26.4813C26.7438 27.0625 26.21 27.48 25.3787 27.48C24.3937 27.48 23.8337 26.9575 23.4062 26.2562L21.7688 27.1937C22.3488 28.3575 23.56 29.25 25.425 29.25C27.325 29.25 28.75 28.265 28.75 26.46C28.75 24.7725 27.7875 24.0238 26.0763 23.3L25.5787 23.085C24.7125 22.705 24.3438 22.4563 24.3438 21.8625C24.3438 21.375 24.7113 20.995 25.3063 20.995C25.8875 20.995 26.2537 21.245 26.5987 21.8625L28.1688 20.8538C27.5037 19.6913 26.5875 19.25 25.3063 19.25H25.305ZM17.9925 19.37V26.1987C17.9925 27.1963 17.565 27.455 16.9113 27.455C16.2238 27.455 15.9263 26.9813 15.6175 26.4225L13.98 27.41C14.455 28.4188 15.3912 29.25 16.995 29.25C18.775 29.25 20 28.3 20 26.22V19.37H17.9925Z" fill="#B1B3C8"/>
</svg>