<svg width="40" height="41" viewBox="0 0 40 41" fill="none" xmlns="http://www.w3.org/2000/svg">
<path d="M23.0198 19.976C23.0198 20.7788 22.701 21.5488 22.1334 22.1166C21.5659 22.6844 20.796 23.0036 19.9932 23.0039C19.1902 23.0039 18.42 22.6849 17.8522 22.1171C17.2843 21.5492 16.9653 20.7791 16.9653 19.976C16.9653 19.1732 17.2841 18.4032 17.8517 17.8354C18.4192 17.2676 19.1891 16.9485 19.9919 16.9481C20.7949 16.9481 21.5651 17.2671 22.1329 17.835C22.7008 18.4028 23.0198 19.173 23.0198 19.976ZM26.6056 5.49997C24.7829 5.49997 22.3982 6.79997 19.9865 9.0506C17.576 6.81216 15.19 5.52706 13.3686 5.52706C12.8134 5.52706 12.3083 5.65299 11.8709 5.90351C10.009 6.97737 9.59188 10.3235 10.5533 14.5228C6.43125 15.7957 3.75 17.831 3.75 19.976C3.75 22.1291 6.44479 24.1699 10.5791 25.4333C9.62573 29.6488 10.0509 33.0004 11.917 34.0729C12.3503 34.3261 12.8514 34.4453 13.4093 34.4453C15.2306 34.4453 17.6167 33.1453 20.0284 30.892C22.4389 33.1317 24.8249 34.4168 26.6462 34.4168C27.2015 34.4168 27.7066 34.295 28.144 34.0445C30.0046 32.972 30.423 29.6258 29.4616 25.4252C33.5687 24.1631 36.25 22.1237 36.25 19.976C36.25 17.8229 33.5552 15.7822 29.4209 14.516C30.3743 10.3046 29.9491 6.95028 28.083 5.87643C27.6319 5.62274 27.1231 5.49286 26.6056 5.49997ZM26.5989 6.97601V6.98414C26.9035 6.98414 27.1486 7.04372 27.3545 7.15612C28.2564 7.67341 28.6477 9.64101 28.343 12.172C28.2699 12.7949 28.1507 13.4516 28.0045 14.122C26.6198 13.7869 25.2142 13.5453 23.7971 13.3988C22.9532 12.2343 22.0326 11.1273 21.0414 10.0852C23.1972 8.08101 25.2217 6.98143 26.6002 6.97737L26.5989 6.97601ZM13.3686 7.0031C14.7391 7.0031 16.773 8.09726 18.9343 10.0906C18.0053 11.0656 17.0791 12.172 16.1989 13.3975C14.7785 13.5423 13.3699 13.7857 11.9833 14.126C11.8379 13.4909 11.7232 12.8492 11.6394 12.2031C11.3279 9.67351 11.7125 7.70726 12.6062 7.1832C12.8635 7.06133 13.1479 7.00987 13.3686 7.0031ZM19.9797 11.1333C20.5958 11.7671 21.212 12.4766 21.8214 13.2512C21.2255 13.2241 20.6161 13.2052 20 13.2052C19.3771 13.2052 18.7609 13.2187 18.1583 13.2512C18.7542 12.4766 19.3703 11.7684 19.9797 11.1333ZM20 14.6893C21.0021 14.6893 22.0001 14.7354 22.9819 14.8153C23.5317 15.6034 24.0679 16.4443 24.5839 17.334C25.0876 18.2007 25.5453 19.0809 25.9624 19.9692C25.5453 20.8562 25.0876 21.7432 24.5906 22.6099C24.076 23.5036 23.5439 24.354 22.9927 25.1422C21.0051 25.3161 19.0061 25.3183 17.0181 25.1489C16.4496 24.3318 15.9152 23.4915 15.4161 22.6302C14.9124 21.7635 14.4547 20.8833 14.0376 19.995C14.4561 19.0934 14.9138 18.2105 15.4094 17.3489C15.924 16.4552 16.4561 15.6075 17.0073 14.8193C18.0024 14.7314 19.001 14.6871 20 14.6866V14.6893ZM15.0776 15.0333C14.7526 15.5438 14.4276 16.0665 14.1243 16.6041C13.8196 17.1323 13.5352 17.6631 13.2644 18.1939C12.9055 17.3056 12.6008 16.42 12.349 15.5574C13.2156 15.3542 14.1297 15.1728 15.0776 15.0333ZM24.9089 15.0333C25.85 15.1728 26.7573 15.3448 27.6253 15.5574C27.3816 16.4132 27.0769 17.2934 26.7316 18.175C26.179 17.0971 25.5711 16.0484 24.9102 15.0333H24.9089ZM29.0567 15.9474C29.7121 16.1505 30.335 16.3766 30.9186 16.6217C33.2641 17.6238 34.7807 18.9347 34.7807 19.9747C34.774 21.0147 33.2573 22.3309 30.9119 23.3262C30.3431 23.57 29.7202 23.7893 29.077 23.9938C28.6702 22.6172 28.1726 21.2691 27.5874 19.9584C28.1968 18.5812 28.6843 17.2365 29.0567 15.9447V15.9474ZM10.9176 15.9528C11.2941 17.2528 11.791 18.6029 12.4072 19.9882C11.8262 21.2911 11.3348 22.6321 10.9366 24.002C10.2811 23.7988 9.65823 23.5713 9.08135 23.3249C6.73594 22.3268 5.21927 21.0147 5.21927 19.9747C5.21927 18.9347 6.73594 17.6157 9.08135 16.6217C9.6501 16.378 10.273 16.1586 10.9176 15.9528ZM26.7316 21.7486C27.0904 22.6383 27.3951 23.5253 27.647 24.3865C26.7803 24.5991 25.8649 24.7792 24.917 24.9147C25.577 23.8916 26.1818 22.8349 26.7316 21.7486ZM13.2644 21.7757C13.5352 22.3065 13.8196 22.836 14.131 23.3668C14.4425 23.895 14.7607 24.4123 15.0857 24.9147C14.1726 24.7826 13.2662 24.6081 12.3693 24.392C12.613 23.5388 12.9191 22.6559 13.263 21.7743L13.2644 21.7757ZM28.0167 25.8206C28.1683 26.4882 28.2875 27.1314 28.3606 27.7476C28.6721 30.2772 28.2875 32.2434 27.3937 32.7688C27.1947 32.8907 26.936 32.9422 26.6314 32.9422C25.2609 32.9422 23.227 31.8493 21.0657 29.8547C21.9947 28.8797 22.9209 27.7747 23.8011 26.5505C25.3002 26.3907 26.718 26.1456 28.0167 25.8206ZM11.9969 25.8341C13.2969 26.151 14.7133 26.3961 16.2043 26.5546C17.098 27.7801 18.0256 28.8932 18.96 29.8668C16.8001 31.8751 14.7729 32.9747 13.3944 32.9747C13.134 32.9767 12.8769 32.9154 12.6455 32.7959C11.7436 32.2813 11.3523 30.3124 11.657 27.7814C11.7301 27.1585 11.8506 26.5031 11.9969 25.8341ZM18.1719 26.7008C18.7677 26.7279 19.3771 26.7468 19.9932 26.7468C20.6161 26.7468 21.2323 26.7333 21.8349 26.7008C21.2391 27.4754 20.6229 28.1836 20.0135 28.8201C19.3974 28.1836 18.7812 27.4754 18.1719 26.7008Z" fill="#61DAFB"/>
</svg>
