<svg width="40" height="41" viewBox="0 0 40 41" fill="none" xmlns="http://www.w3.org/2000/svg">
<path d="M23.0198 19.9761C23.0198 20.7789 22.701 21.5489 22.1334 22.1167C21.5659 22.6845 20.796 23.0036 19.9932 23.004C19.1902 23.004 18.42 22.685 17.8522 22.1171C17.2843 21.5493 16.9653 20.7791 16.9653 19.9761C16.9653 19.1733 17.2841 18.4033 17.8517 17.8355C18.4192 17.2677 19.1891 16.9485 19.9919 16.9482C20.7949 16.9482 21.5651 17.2672 22.1329 17.835C22.7008 18.4029 23.0198 19.173 23.0198 19.9761ZM26.6056 5.50003C24.7829 5.50003 22.3982 6.80003 19.9865 9.05066C17.576 6.81222 15.19 5.52712 13.3686 5.52712C12.8134 5.52712 12.3083 5.65305 11.8709 5.90357C10.009 6.97743 9.59188 10.3236 10.5533 14.5228C6.43125 15.7958 3.75 17.8311 3.75 19.9761C3.75 22.1292 6.44479 24.1699 10.5791 25.4334C9.62573 29.6489 10.0509 33.0005 11.917 34.073C12.3503 34.3262 12.8514 34.4453 13.4093 34.4453C15.2306 34.4453 17.6167 33.1453 20.0284 30.892C22.4389 33.1318 24.8249 34.4169 26.6462 34.4169C27.2015 34.4169 27.7066 34.295 28.144 34.0445C30.0046 32.972 30.423 29.6259 29.4616 25.4252C33.5687 24.1632 36.25 22.1238 36.25 19.9761C36.25 17.823 33.5552 15.7822 29.4209 14.5161C30.3743 10.3046 29.9491 6.95035 28.083 5.87649C27.6319 5.6228 27.1231 5.49292 26.6056 5.50003ZM26.5989 6.97607V6.9842C26.9035 6.9842 27.1486 7.04378 27.3545 7.15618C28.2564 7.67347 28.6477 9.64108 28.343 12.172C28.2699 12.7949 28.1507 13.4517 28.0045 14.122C26.6198 13.787 25.2142 13.5454 23.7971 13.3989C22.9532 12.2343 22.0326 11.1273 21.0414 10.0852C23.1972 8.08107 25.2217 6.98149 26.6002 6.97743L26.5989 6.97607ZM13.3686 7.00316C14.7391 7.00316 16.773 8.09732 18.9343 10.0907C18.0053 11.0657 17.0791 12.172 16.1989 13.3975C14.7785 13.5423 13.3699 13.7858 11.9833 14.1261C11.8379 13.491 11.7232 12.8493 11.6394 12.2032C11.3279 9.67357 11.7125 7.70732 12.6062 7.18326C12.8635 7.06139 13.1479 7.00993 13.3686 7.00316ZM19.9797 11.1334C20.5958 11.7671 21.212 12.4767 21.8214 13.2513C21.2255 13.2242 20.6161 13.2052 20 13.2052C19.3771 13.2052 18.7609 13.2188 18.1583 13.2513C18.7542 12.4767 19.3703 11.7685 19.9797 11.1334ZM20 14.6894C21.0021 14.6894 22.0001 14.7354 22.9819 14.8153C23.5317 15.6035 24.0679 16.4444 24.5839 17.3341C25.0876 18.2008 25.5453 19.081 25.9624 19.9693C25.5453 20.8563 25.0876 21.7433 24.5906 22.6099C24.076 23.5037 23.5439 24.3541 22.9927 25.1422C21.0051 25.3161 19.0061 25.3184 17.0181 25.149C16.4496 24.3319 15.9152 23.4916 15.4161 22.6302C14.9124 21.7636 14.4547 20.8834 14.0376 19.995C14.4561 19.0934 14.9138 18.2106 15.4094 17.349C15.924 16.4552 16.4561 15.6075 17.0073 14.8194C18.0024 14.7315 19.001 14.6872 20 14.6867V14.6894ZM15.0776 15.0334C14.7526 15.5439 14.4276 16.0666 14.1243 16.6042C13.8196 17.1323 13.5352 17.6632 13.2644 18.194C12.9055 17.3057 12.6008 16.42 12.349 15.5574C13.2156 15.3543 14.1297 15.1728 15.0776 15.0334ZM24.9089 15.0334C25.85 15.1728 26.7573 15.3448 27.6253 15.5574C27.3816 16.4133 27.0769 17.2935 26.7316 18.175C26.179 17.0971 25.5711 16.0485 24.9102 15.0334H24.9089ZM29.0567 15.9474C29.7121 16.1506 30.335 16.3767 30.9186 16.6218C33.2641 17.6239 34.7807 18.9347 34.7807 19.9747C34.774 21.0147 33.2573 22.331 30.9119 23.3263C30.3431 23.57 29.7202 23.7894 29.077 23.9939C28.6702 22.6173 28.1726 21.2692 27.5874 19.9585C28.1968 18.5813 28.6843 17.2366 29.0567 15.9447V15.9474ZM10.9176 15.9528C11.2941 17.2528 11.791 18.603 12.4072 19.9883C11.8262 21.2911 11.3348 22.6322 10.9366 24.002C10.2811 23.7989 9.65823 23.5714 9.08135 23.3249C6.73594 22.3269 5.21927 21.0147 5.21927 19.9747C5.21927 18.9347 6.73594 17.6158 9.08135 16.6218C9.6501 16.3781 10.273 16.1587 10.9176 15.9528ZM26.7316 21.7487C27.0904 22.6384 27.3951 23.5253 27.647 24.3866C26.7803 24.5992 25.8649 24.7793 24.917 24.9147C25.577 23.8917 26.1818 22.8349 26.7316 21.7487ZM13.2644 21.7758C13.5352 22.3066 13.8196 22.8361 14.131 23.3669C14.4425 23.895 14.7607 24.4123 15.0857 24.9147C14.1726 24.7826 13.2662 24.6082 12.3693 24.392C12.613 23.5389 12.9191 22.656 13.263 21.7744L13.2644 21.7758ZM28.0167 25.8207C28.1683 26.4883 28.2875 27.1315 28.3606 27.7476C28.6721 30.2772 28.2875 32.2435 27.3937 32.7689C27.1947 32.8908 26.936 32.9422 26.6314 32.9422C25.2609 32.9422 23.227 31.8494 21.0657 29.8547C21.9947 28.8797 22.9209 27.7747 23.8011 26.5506C25.3002 26.3908 26.718 26.1457 28.0167 25.8207ZM11.9969 25.8342C13.2969 26.1511 14.7133 26.3962 16.2043 26.5546C17.098 27.7801 18.0256 28.8933 18.96 29.8669C16.8001 31.8751 14.7729 32.9747 13.3944 32.9747C13.134 32.9768 12.8769 32.9154 12.6455 32.796C11.7436 32.2814 11.3523 30.3124 11.657 27.7815C11.7301 27.1586 11.8506 26.5032 11.9969 25.8342ZM18.1719 26.7009C18.7677 26.728 19.3771 26.7469 19.9932 26.7469C20.6161 26.7469 21.2323 26.7334 21.8349 26.7009C21.2391 27.4755 20.6229 28.1837 20.0135 28.8201C19.3974 28.1837 18.7812 27.4755 18.1719 26.7009Z" fill="#B1B3C8"/>
</svg>