<svg width="40" height="41" viewBox="0 0 40 41" fill="none" xmlns="http://www.w3.org/2000/svg">
<path d="M8.87583 8L11.9617 13.3987C14.4457 12.1128 17.2028 11.4435 20 11.4475C22.8962 11.4475 25.6292 12.1519 28.0383 13.3987L31.1242 8L33.6558 9.44667L30.5087 14.9533C32.6812 16.5824 34.4441 18.6953 35.6577 21.1244C36.8713 23.5536 37.502 26.2321 37.5 28.9475V31.8642H2.5V28.9475C2.5 23.225 5.2475 18.1456 9.48979 14.9533L6.34417 9.44667L8.87583 8ZM11.25 21.6558H14.1725V24.5783H11.25V21.6558ZM25.8333 21.6558H28.7558V24.5783H25.8333V21.6558Z" fill="#34A853"/>
<path d="M11.25 21.6558H14.1725V24.5783H11.25V21.6558ZM25.8333 21.6558H28.7558V24.5783H25.8333V21.6558Z" fill="white"/>
</svg>
